<?xml version="1.0" standalone="no"?>
<!DOCTYPE svg PUBLIC "-//W3C//DTD SVG 20010904//EN"
 "http://www.w3.org/TR/2001/REC-SVG-20010904/DTD/svg10.dtd">
<svg version="1.0" xmlns="http://www.w3.org/2000/svg"
 width="200.000000pt" height="200.000000pt" viewBox="0 0 200.000000 200.000000"
 preserveAspectRatio="xMidYMid meet">
<metadata>
Created by potrace 1.16, written by Peter Selinger 2001-2019
</metadata>
<g transform="translate(0.000000,200.000000) scale(0.100000,-0.100000)"
fill="#000000" stroke="none">
<path d="M162 1151 c-47 -43 -63 -84 -60 -153 2 -34 8 -63 13 -64 6 -2 21 5
35 16 l25 20 -34 -10 c-50 -14 -32 -2 54 35 99 43 105 49 105 99 0 55 -15 72
-67 79 -37 4 -47 1 -71 -22z"/>
<path d="M950 1020 c-39 -39 -17 -113 36 -123 81 -15 132 55 83 117 -26 33
-88 37 -119 6z"/>
<path d="M1120 1020 c-37 -37 -22 -100 28 -118 60 -21 112 11 112 70 0 41 -32
68 -80 68 -27 0 -47 -7 -60 -20z"/>
<path d="M1541 998 c21 -30 29 -51 26 -70 -3 -24 0 -28 20 -28 20 0 22 2 11
19 -9 15 -7 25 11 54 23 38 51 65 51 50 0 -6 11 -8 25 -5 24 4 25 3 25 -51 0
-35 -5 -57 -12 -60 -7 -3 3 -6 22 -6 26 -1 31 2 22 11 -7 7 -12 34 -12 61 l0
50 30 -6 c17 -4 30 -2 30 3 0 6 5 10 10 10 15 0 13 -117 -2 -123 -7 -3 13 -6
45 -6 52 -1 57 1 57 21 0 20 -1 20 -18 5 -28 -26 -52 -22 -52 9 0 23 3 26 25
22 19 -4 25 -1 25 12 0 13 -6 16 -25 12 -21 -3 -25 0 -25 18 0 19 4 22 30 18
20 -3 30 0 30 9 0 10 -31 13 -146 13 -92 0 -143 -4 -139 -10 3 -5 1 -19 -5
-31 l-12 -21 -14 21 c-9 12 -12 26 -9 31 4 6 -7 10 -24 10 l-31 0 31 -42z"/>
<path d="M191 956 l-83 -42 32 -38 c39 -44 73 -63 129 -72 l41 -7 25 54 c14
30 25 64 25 75 0 30 -38 74 -63 73 -12 0 -60 -19 -106 -43z"/>
</g>
</svg>
